<?xml version="1.0" encoding="UTF-8" standalone="no"?>
<!-- Created with Inkscape (http://www.inkscape.org/) -->

<svg
   width="8"
   height="8"
   viewBox="0 0 2.1166665 2.1166667"
   version="1.1"
   id="svg1"
   xml:space="preserve"
   inkscape:version="1.3 (0e150ed6c4, 2023-07-21)"
   sodipodi:docname="pub.svg"
   inkscape:export-filename="../../../openstreetmap-explorer/symbols/wc.svg"
   inkscape:export-xdpi="96"
   inkscape:export-ydpi="96"
   xmlns:inkscape="http://www.inkscape.org/namespaces/inkscape"
   xmlns:sodipodi="http://sodipodi.sourceforge.net/DTD/sodipodi-0.dtd"
   xmlns="http://www.w3.org/2000/svg"
   xmlns:svg="http://www.w3.org/2000/svg"><sodipodi:namedview
     id="namedview1"
     pagecolor="#ffffff"
     bordercolor="#000000"
     borderopacity="0.25"
     inkscape:showpageshadow="2"
     inkscape:pageopacity="0.0"
     inkscape:pagecheckerboard="0"
     inkscape:deskcolor="#d1d1d1"
     inkscape:document-units="mm"
     inkscape:zoom="45.33028"
     inkscape:cx="1.2794979"
     inkscape:cy="3.4083178"
     inkscape:window-width="1920"
     inkscape:window-height="1131"
     inkscape:window-x="0"
     inkscape:window-y="0"
     inkscape:window-maximized="1"
     inkscape:current-layer="layer1" /><defs
     id="defs1" /><g
     inkscape:label="Layer 1"
     inkscape:groupmode="layer"
     id="layer1"><path
       style="fill:#00b2ec;fill-opacity:1"
       d="M 0.24786486,1.7083146 C 0.14359901,1.4174795 0.13288375,1.3491792 0.13445502,0.98542671 c 0.00127,-0.29392169 0.009045,-0.37020174 0.0426187,-0.41813565 0.0225862,-0.0322463 0.0410658,-0.0880641 0.0410658,-0.12403958 0,-0.0359755 0.0166293,-0.0792111 0.0369541,-0.0960791 0.0203248,-0.0168681 0.0369541,-0.0570273 0.0369541,-0.0892428 0,-0.0585736 0,-0.0585736 0.56328236,-0.0585736 0.56328232,0 0.56328232,0 0.60124472,0.10470324 0.020879,0.0575868 0.044769,0.13519037 0.053088,0.17245241 0.01494,0.0669175 0.070862,0.0909279 0.1004136,0.0431131 0.03198,-0.0517451 0.200053,-0.0260564 0.2991393,0.0457213 0.1240094,0.089832 0.166394,0.2113174 0.1520914,0.43593487 -0.010438,0.1639318 -0.012773,0.1688093 -0.133971,0.2798816 -0.1251897,0.1147307 -0.1845487,0.1503384 -0.3172597,0.1903148 -0.052546,0.015828 -0.076078,0.039922 -0.081414,0.083358 -0.00413,0.033602 -0.02442,0.1137539 -0.045093,0.1781156 -0.037587,0.1170213 -0.037587,0.1170213 -0.61125361,0.1170213 -0.57366647,0 -0.57366647,0 -0.62445093,-0.1416576 z M 1.6963031,1.2094344 c 0.0271,-0.0271 0.059968,-0.049272 0.073041,-0.049272 0.036278,0 0.068059,-0.073867 0.087465,-0.20329236 C 1.8891147,0.74142696 1.7418874,0.6342681 1.6270279,0.78962383 c -0.044935,0.0607775 -0.053905,0.10587433 -0.053905,0.27099667 0,0.2160142 0.025352,0.246642 0.1231802,0.1488139 z M 1.3363653,0.64896408 c -0.00775,-0.0643617 -0.025027,-0.15305151 -0.038393,-0.19708847 -0.024303,-0.0800672 -0.024303,-0.0800672 -0.42941552,-0.0800672 -0.39748318,0 -0.40550725,0.001044 -0.42606968,0.0554311 -0.0469509,0.12418427 -0.0765308,0.23436402 -0.0765308,0.28506378 0,0.0533609 0.002945,0.053682 0.49224989,0.053682 0.49224991,0 0.49224991,0 0.47815911,-0.11702121 z"
       id="path1" /></g></svg>
