<?xml version="1.0" encoding="UTF-8" standalone="no"?>
<svg
   width="14"
   height="14"
   viewBox="0 0 14 14"
   version="1.1"
   id="svg115"
   xmlns="http://www.w3.org/2000/svg"
>
  <g>
    <path
       d="m 8.4999971,4.1439999 -1.456,5.712 h -1.376 l -0.776,-3 q -0.024,-0.088 -0.064,-0.264 -0.032,-0.176 -0.08,-0.384 -0.04,-0.208 -0.072,-0.392 -0.032,-0.192 -0.048,-0.296 -0.008,0.104 -0.048,0.296 -0.032,0.184 -0.072,0.392 -0.04,0.2 -0.08,0.384 -0.04,0.176 -0.064,0.272 l -0.768,2.992 h -1.376 l -1.45600002,-5.712 H 1.9559971 l 0.728,3.12 q 0.048,0.184 0.104,0.464 0.056,0.28 0.104,0.56 0.048,0.28 0.072,0.472 0.024,-0.2 0.072,-0.472 0.048,-0.28 0.096,-0.536 0.056,-0.264 0.096,-0.408 l 0.832,-3.2 h 1.144 l 0.832,3.2 q 0.04,0.136 0.088,0.4 0.056,0.264 0.104,0.544 0.048,0.28 0.072,0.472 0.024,-0.2 0.072,-0.472 0.048,-0.28 0.104,-0.56 0.064,-0.28 0.104,-0.464 l 0.728,-3.12 z"
       id="path583" />
    <path
       d="m 11.564003,5.0719999 q -0.696,0 -1.064,0.52 -0.368,0.52 -0.368,1.424 0,0.912 0.336,1.416 0.344,0.496 1.096,0.496 0.352,0 0.696,-0.08 0.352,-0.08 0.76,-0.224 v 1.016 q -0.376,0.152 -0.744,0.224 -0.368,0.072 -0.824,0.072 -0.88,0 -1.4560001,-0.36 -0.568,-0.368 -0.84,-1.024 -0.272,-0.664 -0.272,-1.544 0,-0.864 0.312,-1.528 0.312,-0.664 0.9040001,-1.04 0.6,-0.376 1.464,-0.376 0.424,0 0.848,0.112 0.432,0.104 0.824,0.288 l -0.392,0.984 q -0.32,-0.152 -0.648,-0.264 -0.32,-0.112 -0.632,-0.112 z"
       id="path585" />
  </g>
</svg>
