<?xml version="1.0" encoding="UTF-8" standalone="no"?>
<!-- Created with Inkscape (http://www.inkscape.org/) -->

<svg
   width="8"
   height="8"
   viewBox="0 0 2.1166665 2.1166667"
   version="1.1"
   id="svg1"
   xml:space="preserve"
   xmlns="http://www.w3.org/2000/svg"
   xmlns:svg="http://www.w3.org/2000/svg"><defs
     id="defs1" /><g
     id="layer1"><path
       style="font-size:1.76389px;font-family:'Gill Sans';-inkscape-font-specification:'Gill Sans';fill:#00abee;stroke:#00abee;stroke-width:0"
       d="M 0.09436677,0.45684687 V 1.6598198 H 0.22665852 V 1.1165417 h 0.21166681 c 0.30162519,0 0.39687525,-0.16580563 0.39687525,-0.32984743 0,-0.16404174 -0.0952501,-0.3298474 -0.39687525,-0.3298474 z m 0.32984744,0.11641674 c 0.24165293,0 0.26987517,0.12700008 0.26987517,0.21343066 0,0.086431 -0.0282222,0.21343063 -0.26987517,0.21343063 H 0.22665852 V 0.57326361 Z m 1.58573849,-0.03175 C 1.8741331,0.48154133 1.7294942,0.44097186 1.5813274,0.44097186 c -0.3227919,0 -0.6350004,0.24165293 -0.6350004,0.62088924 0,0.3351391 0.2575279,0.6138337 0.6438198,0.6138337 0.1516946,0 0.2998614,-0.038806 0.4321531,-0.1093612 V 1.4234585 c -0.1393473,0.081139 -0.2769307,0.1270001 -0.4356808,0.1270001 -0.2822224,0 -0.4991809,-0.2010834 -0.4991809,-0.4885975 0,-0.28575014 0.2187224,-0.49565305 0.5044725,-0.49565305 0.1516946,0 0.2822224,0.0440972 0.418042,0.11818063 z"
       id="text1"
       aria-label="PC" /></g></svg>
