<?xml version="1.0" encoding="UTF-8" standalone="no"?>
<!-- Created with Inkscape (http://www.inkscape.org/) -->

<svg
   width="8"
   height="8"
   viewBox="0 0 2.1166665 2.1166667"
   version="1.1"
   id="svg1"
   xml:space="preserve"
   inkscape:version="1.3 (0e150ed6c4, 2023-07-21)"
   sodipodi:docname="picnic.svg"
   inkscape:export-filename="../../../openstreetmap-explorer/symbols/wc.svg"
   inkscape:export-xdpi="96"
   inkscape:export-ydpi="96"
   xmlns:inkscape="http://www.inkscape.org/namespaces/inkscape"
   xmlns:sodipodi="http://sodipodi.sourceforge.net/DTD/sodipodi-0.dtd"
   xmlns="http://www.w3.org/2000/svg"
   xmlns:svg="http://www.w3.org/2000/svg"><sodipodi:namedview
     id="namedview1"
     pagecolor="#ffffff"
     bordercolor="#000000"
     borderopacity="0.25"
     inkscape:showpageshadow="2"
     inkscape:pageopacity="0.0"
     inkscape:pagecheckerboard="0"
     inkscape:deskcolor="#d1d1d1"
     inkscape:document-units="mm"
     inkscape:zoom="64.106697"
     inkscape:cx="-1.427308"
     inkscape:cy="5.8418234"
     inkscape:window-width="1920"
     inkscape:window-height="1131"
     inkscape:window-x="0"
     inkscape:window-y="0"
     inkscape:window-maximized="1"
     inkscape:current-layer="layer1" /><defs
     id="defs1" /><g
     inkscape:label="Layer 1"
     inkscape:groupmode="layer"
     id="layer1"><path
       style="fill:#00b2ec;fill-opacity:1"
       d="M 0.23779959,1.8474023 C 0.23738981,1.8391155 0.40571278,1.669449 0.61185063,1.4703657 L 0.98664672,1.108396 0.60255104,0.73977179 C 0.25216494,0.40349931 0.21845536,0.36518357 0.21845536,0.30319229 V 0.23523702 H 1.0822947 1.946134 v 0.0748425 c 0,0.070781 -0.020349,0.0945079 -0.3749807,0.43722778 L 1.1961726,1.1096926 1.5711469,1.471014 c 0.2062359,0.1987267 0.3749772,0.3681015 0.3749807,0.3763883 3.5e-6,0.00829 -0.045286,0.015067 -0.1006439,0.015067 -0.09978,0 -0.1021689,-0.00152 -0.2762277,-0.175933 C 1.4726884,1.5897732 1.32399,1.443964 1.238815,1.3625159 L 1.0839514,1.2144284 0.74662751,1.5380585 C 0.41953629,1.8518713 0.40671359,1.8617004 0.32392411,1.8620789 0.27696541,1.8622936 0.23820937,1.8556891 0.23779959,1.8474023 Z M 1.4137679,0.6877811 1.7351965,0.37780191 1.0822947,0.37709851 0.42939287,0.37639511 0.75082144,0.68649693 c 0.17678572,0.170556 0.32594866,0.31036316 0.33147326,0.31068259 0.00552,3.1942e-4 0.1546875,-0.13890987 0.3314732,-0.30939842 z"
       id="path1" /></g></svg>
