<?xml version="1.0" encoding="UTF-8" standalone="no"?>
<!-- Created with Inkscape (http://www.inkscape.org/) -->

<svg
   width="8"
   height="8"
   viewBox="0 0 2.1166665 2.1166667"
   version="1.1"
   id="svg1"
   xml:space="preserve"
   inkscape:version="1.3 (0e150ed6c4, 2023-07-21)"
   sodipodi:docname="golf.svg"
   inkscape:export-filename="../../../openstreetmap-explorer/symbols/historic/castle.svg"
   inkscape:export-xdpi="96"
   inkscape:export-ydpi="96"
   xmlns:inkscape="http://www.inkscape.org/namespaces/inkscape"
   xmlns:sodipodi="http://sodipodi.sourceforge.net/DTD/sodipodi-0.dtd"
   xmlns="http://www.w3.org/2000/svg"
   xmlns:svg="http://www.w3.org/2000/svg"><sodipodi:namedview
     id="namedview1"
     pagecolor="#ffffff"
     bordercolor="#000000"
     borderopacity="0.25"
     inkscape:showpageshadow="2"
     inkscape:pageopacity="0.0"
     inkscape:pagecheckerboard="0"
     inkscape:deskcolor="#d1d1d1"
     inkscape:document-units="mm"
     inkscape:zoom="32.053348"
     inkscape:cx="-7.0039485"
     inkscape:cy="-0.8267467"
     inkscape:window-width="1920"
     inkscape:window-height="1131"
     inkscape:window-x="0"
     inkscape:window-y="0"
     inkscape:window-maximized="1"
     inkscape:current-layer="layer1" /><defs
     id="defs1" /><g
     inkscape:label="Layer 1"
     inkscape:groupmode="layer"
     id="layer1"><path
       style="fill:#00b2ec;fill-opacity:1;stroke-width:1.1705"
       d="m 0.48706582,1.0363534 c 0,-0.92842894 9.482e-4,-0.95219642 0.0379877,-0.95219642 0.0208932,0 0.0628586,0.009614 0.0932564,0.0213662 0.0303978,0.0117514 0.18779082,0.0552914 0.34976233,0.0967556 0.16197165,0.0414641 0.34308525,0.0900742 0.40247495,0.1080223 0.05939,0.0179481 0.1671151,0.0475307 0.23939,0.0657389 0.1353846,0.0341075 0.1892658,0.0615095 0.1209474,0.0615095 -0.021376,0 -0.1708316,0.038904 -0.3321236,0.0864534 C 1.237469,0.57155228 1.0304068,0.62912529 0.93862295,0.651943 0.84683905,0.6747608 0.73640387,0.7057109 0.69321145,0.7207211 l -0.0785317,0.0272913 -0.005184,0.6202688 -0.005184,0.620269 h -0.058623 -0.058623 z"
       id="path1" /></g></svg>
