<?xml version="1.0" encoding="UTF-8" standalone="no"?>
<!-- Created with Inkscape (http://www.inkscape.org/) -->

<svg
   width="60"
   height="15"
   viewBox="0 0 15.874999 3.96875"
   version="1.1"
   id="svg1"
   xml:space="preserve"
   xmlns="http://www.w3.org/2000/svg"
   xmlns:svg="http://www.w3.org/2000/svg"><defs
     id="defs1" /><g
     id="layer1"><path
       style="fill:none;stroke:#4d4d4d;stroke-width:0.202;stroke-dasharray:none"
       d="M 0.05583912,0.8496929 C 0.44073226,1.0358699 0.90604915,0.9423929 1.3312572,0.963634 2.031943,0.971284 2.7275094,0.955829 3.4229511,0.945875 3.8157776,1.0234304 4.2291078,1.0909616 4.6238915,1.0194239 4.9471498,0.80273492 5.3649535,0.64957439 5.5961643,0.31575776 l 0.00879,-0.0154561"
       id="path1" /><path
       style="fill:none;stroke:#4d4d4d;stroke-width:0.15875;stroke-dasharray:none"
       d="m 5.4629663,0.29452394 c 0.3107639,0.2665897 0.6222797,0.53707756 1.0648863,0.52045337 0.4481072,0.0324014 0.8933529,0.0281004 1.3383,0.10127978 0.4061637,0.0264817 0.8499696,0.0471595 1.2292339,-0.0996788"
       id="path2" /><path
       style="fill:none;stroke:#4d4d4d;stroke-width:0.185208;stroke-dasharray:none"
       d="M 15.493159,0.55944055 C 15.332539,0.92162727 15.003268,1.2824707 14.564197,1.1626949 14.213333,1.1313431 13.876429,1.107676 13.535532,1.0465093 13.192682,1.025862 12.852178,1.0286613 12.507476,1.0284677"
       id="path3" /><path
       style="fill:none;stroke:#4d4d4d;stroke-width:0.185208;stroke-dasharray:none"
       d="M 12.418801,0.62558187 C 12.027868,1.0627038 11.373806,1.1112179 10.826304,1.0871571 10.635065,1.0427447 10.448635,0.96921822 10.245901,0.97232684"
       id="path4" /><path
       style="fill:none;stroke:#4d4d4d;stroke-width:0.15875;stroke-dasharray:none"
       d="m 15.86163,1.2908713 c -0.205598,0.2780923 -0.436196,0.59377 -0.766477,0.6736371 -0.725263,0.026498 -1.452635,0.045623 -2.1824,0.054127 -0.32222,0.00472 -0.60119,0.140193 -0.931797,0.114178 -0.16264,-0.099834 -0.153069,-0.3514074 -0.20019,-0.527263"
       id="path5" /><path
       style="fill:none;stroke:#4d4d4d;stroke-width:0.15875;stroke-dasharray:none"
       d="M 11.627559,1.597874 C 11.59657,2.0685962 10.886078,2.4202784 10.395069,2.3572061 9.6559735,2.3504149 8.8998688,2.3691647 8.2065094,2.1011741 8.0400053,1.9153121 7.8169981,1.7823605 7.5896427,1.6783781"
       id="path6" /><path
       style="fill:none;stroke:#4d4d4d;stroke-width:0.202;stroke-dasharray:none"
       d="M 7.5061475,1.6304934 C 7.2362391,1.8406916 6.8428814,2.0574311 6.4731252,2.1533701 5.7910712,2.1723849 5.1119437,2.116016 4.4339119,2.1560744 4.0366121,2.0159221 3.5579112,2.0295463 3.3774951,1.5828138 L 3.3495942,1.522964 V 1.4078677"
       id="path7" /><path
       style="fill:none;stroke:#4d4d4d;stroke-width:0.202;stroke-dasharray:none"
       d="M 3.346379,1.5323346 C 2.9065187,1.8384741 2.3555443,1.967156 1.8399092,2.0894193 1.2761498,2.2181352 0.70275947,2.0933134 0.1297422,2.1262753 H 0.09696243 0.08652186"
       id="path8" /><path
       style="fill:none;stroke:#4d4d4d;stroke-width:0.196056;stroke-dasharray:none"
       d="M 3.2302173,2.6568879 C 3.0801411,3.1854866 2.4123117,3.0408441 1.9852912,3.1319299 1.555039,3.2190419 1.0485664,3.148694 0.56107698,3.1695129 0.38976171,3.1125665 0.2165033,3.125653 0.04005673,3.1052219"
       id="path9" /><path
       style="fill:none;stroke:#4d4d4d;stroke-width:0.169598;stroke-dasharray:none"
       d="m 3.7657737,2.7907319 c 0.2892102,0.4191119 0.7482049,0.2797694 1.1630964,0.2198786 0.1879667,-0.00635 0.3738981,-0.058059 0.563895,-0.088883"
       id="path11" /><path
       style="fill:none;stroke:#4d4d4d;stroke-width:0.122502;stroke-dasharray:none"
       d="M 7.7234469,2.6894712 C 7.3807255,3.0004713 6.944102,3.2638582 6.4638116,3.1936687 6.2236713,3.1759812 5.9781404,3.1949723 5.7375921,3.1775287"
       id="path12" /><path
       style="fill:none;stroke:#4d4d4d;stroke-width:0.122502;stroke-dasharray:none"
       d="M 8.3064094,2.8802849 C 8.6325595,3.3004783 9.1273946,3.3393204 9.599496,3.2047768 10.052114,3.1654498 10.536664,3.044273 10.925629,2.913679 11.007209,2.8229 11.138292,2.875248 11.231229,2.834192"
       id="path13" /><path
       style="fill:none;stroke:#4d4d4d;stroke-width:0.194204;stroke-dasharray:none"
       d="m 15.744801,2.3264803 c -0.3367,0.2033293 -0.70331,0.3879795 -1.077245,0.511242 -0.340286,0.066377 -0.736058,0.080925 -1.044347,0.027637 -0.05345,-0.091177 -0.155591,-0.063429 -0.22737,-0.10563"
       id="path14" /><path
       style="fill:none;stroke:#4d4d4d;stroke-width:0.167746;stroke-dasharray:none"
       d="m 11.735948,2.8027435 c 0.265819,0.4768279 0.650601,0.2020157 1.046561,0.164334 0.156231,-0.029268 0.246692,-0.1691731 0.39141,-0.202419"
       id="path15" /><path
       style="fill:#00abee;stroke:#00abee;stroke-width:0"
       d="M 7.0536146,0.65225855 6.7969695,0.93654642"
       id="path10" /></g></svg>
