<?xml version="1.0" encoding="UTF-8" standalone="no"?>
<!-- Created with Inkscape (http://www.inkscape.org/) -->

<svg
   width="60"
   height="15"
   viewBox="0 0 15.874999 3.96875"
   version="1.1"
   id="svg1"
   xml:space="preserve"
   xmlns="http://www.w3.org/2000/svg"
   xmlns:svg="http://www.w3.org/2000/svg"><defs
     id="defs1" /><g
     id="layer1"><path
       style="fill:none;stroke:#4d4d4d;stroke-width:0.202;stroke-dasharray:none"
       d="m 0.05583912,0.8496929 c 0.0849268,0.0687241 -0.003178,0.004705 0.067507,0.040413 0.0109889,0.005551 0.0358458,0.0268252 0.0514209,0.0309863 0.0388141,0.0103695 0.0784564,0.002339 0.12105645,0.007937 0.004519,5.9266e-4 0.0843433,0.0216442 0.0886409,0.0221678 0.0472186,0.005753 0.0964385,-0.005368 0.14371084,0 0.025096,0.00285 0.0496055,0.009993 0.0747442,0.012437 0.1020694,0.009925 0.2289871,0 0.3349806,0 0.15538769,0 0.31077539,0 0.46616309,0 0.3064067,0 0.6128134,0 0.91922,0 0.1055585,0 0.2111166,0 0.3166748,0 0.032165,0 0.093756,0.007428 0.1294492,0 0.010144,-0.002111 0.019264,-0.008173 0.029496,-0.009822 0.028884,-0.004655 0.066948,0.008999 0.094875,0 0.00356,-0.001148 0.00439,-0.006752 0.00794,-0.007937 0.021759,-0.007263 0.061904,0 0.084262,0 0.073163,0 0.1463259,0 0.219489,0 0.052301,0 0.1705118,-0.009799 0.217482,0 0.038298,0.00799 0.077193,0.009777 0.115674,0.0206473 0.00793,0.002241 0.013991,0.009637 0.022108,0.0110688 0.013346,0.002355 0.027104,0 0.040656,0 0.0156,0.003902 0.031056,0.008431 0.046799,0.0117072 0.013854,0.00288 0.029832,-0.003427 0.043515,0 0.047583,0.011917 0.096544,0.020694 0.1452615,0.028797 0.013467,0.00224 0.035052,-0.00305 0.04765,0 0.00401,9.711e-4 0.00487,0.00737 0.00876,0.00876 0.00952,0.00339 0.021712,-0.00251 0.031503,0 0.071881,0.018391 0.1492568,0.019815 0.2232597,0.030378 0.028085,0.00401 0.053847,-0.00174 0.079548,-0.00794 0.038466,-0.00927 0.082575,0.00421 0.1222426,0 0.034568,-0.00367 0.068648,-0.011288 0.1032369,-0.014748 0.014666,-0.00147 0.029476,0 0.044214,0 0.018661,-0.00373 0.037095,-0.00887 0.055982,-0.01119 0.011578,-0.00142 0.023767,0.00315 0.035,0 0.041514,0.024692 0.03502,-0.024401 0.054644,-0.032324 0.012332,-0.004979 0.02636,-0.004733 0.03871,-0.00967 0.016441,-0.006573 0.030539,-0.0292585 0.046616,-0.0373721 0.00836,-0.004217 0.018267,-0.004693 0.026638,-0.008879 0.017526,-0.008763 0.031182,-0.0321786 0.048836,-0.040717 0.055733,-0.0269552 0.1217533,-0.0393739 0.1745755,-0.0711864 0.016412,-0.009884 0.033194,-0.0191706 0.049292,-0.0295571 0.01248,-0.008053 0.021373,-0.0244091 0.033115,-0.0331149 0.013705,-0.0101627 0.034448,-0.0268823 0.050569,-0.0332365 0.020174,-0.007952 0.030072,-0.007699 0.047407,-0.0189444 0.031401,-0.0203703 0.052568,-0.0549242 0.083472,-0.0753828 0.031642,-0.0209479 0.074658,-0.0389432 0.1071292,-0.0539752 0.00454,-0.002101 0.044558,-0.0558379 0.056803,-0.0649222 0.02205,-0.0163579 0.059353,-0.0328115 0.079123,-0.0530629 0.00863,-0.008835 0.032102,-0.0529886 0.041477,-0.0670509 0.00809,-0.0121389 0.026962,-0.0191777 0.031473,-0.0236882 0.00682,-0.006821 0.016534,-0.0398866 0.023355,-0.0467075 0.00771,-0.007711 0.023355,-0.005352 0.023355,-0.0232625"
       id="path1" /><path
       style="fill:none;stroke:#4d4d4d;stroke-width:0.264583;stroke-dasharray:none"
       d="m 5.4629663,0.29452394 c 0.072605,0.0364713 0.12227,0.11172539 0.1884116,0.15623915 0.00462,0.003113 0.012086,-0.003094 0.016724,0 0.028346,0.0189085 0.045134,0.0516982 0.072311,0.0722507 0.062798,0.04749 0.017029,-0.0210436 0.095848,0.0578371 0.010382,0.0103894 0.00985,0.0285161 0.019704,0.0394095 0.00436,0.004824 0.042223,0.0107196 0.047073,0.0155691 0.00367,0.00367 -0.00369,0.0119171 0,0.0155691 0.02675,0.0264944 0.2093002,0.0889085 0.2432684,0.0999833 0.08408,0.0274131 -0.011197,0.0178083 0.099436,0.0397744 0.048686,0.009667 0.1033362,-0.0101219 0.1519211,0 0.019161,0.003992 0.036516,0.0147156 0.055708,0.0185491 0.096641,0.0193029 0.2061027,-0.0204195 0.3025653,0 0.013623,0.002884 0.024895,0.0124878 0.037342,0.0187317 0.027104,0 0.054576,-0.004452 0.081312,0 0.014952,0.00249 0.025853,0.0171984 0.040687,0.0203128 0.095931,0.0201388 0.2080919,-0.0241453 0.3029908,0 0.00799,0.002032 0.00975,0.0146987 0.017515,0.0174546 0.078233,0.0277537 0.2655568,-0.0193016 0.3528611,0 0.012438,0.00275 0.021823,0.0139975 0.034179,0.0170897 0.043513,0.0108879 0.1007515,-0.0142893 0.143346,0 0.03224,0.0108156 0.066957,0.0267052 0.099983,0.0329629 0.056106,0.010631 0.1327644,-0.0181872 0.1872556,0 0.00707,0.00236 0.00874,0.0134607 0.015811,0.0158126 0.032573,0.0108299 0.3992722,0.009641 0.4374573,0 0.012324,-0.003111 0.021786,-0.0139512 0.034119,-0.0170288 0.046426,-0.0115858 0.1016741,0.007916 0.1488802,0 0.021011,-0.003523 0.039621,-0.0166926 0.060635,-0.0201911 0.048696,-0.008108 0.1098955,0.0142735 0.1570908,0 0.021429,-0.00648 0.023394,-0.0229984 0.031442,-0.0310775 0.00686,-0.006882 0.082622,-0.0119531 0.093415,-0.0155691 0.01655,-0.005544 0.053181,-0.0316249 0.063128,-0.0316249"
       id="path2" /><path
       style="fill:none;stroke:#4d4d4d;stroke-width:0.264583;stroke-dasharray:none"
       d="m 15.493159,0.55944055 c 8.7e-5,0.0515562 -0.03271,0.0697233 -0.05432,0.10993036 -0.0082,0.015143 -0.01305,0.0321825 -0.02215,0.0467044 -0.0054,0.008671 -0.01464,0.0140375 -0.02094,0.0220286 -0.02435,0.02298 -0.03529,0.0563867 -0.05571,0.0823337 -0.0098,0.0125052 -0.023,0.0218327 -0.03272,0.0344426 -0.0047,0.006 -0.0052,0.0147136 -0.0098,0.0207507 -0.04607,0.0607239 -0.108127,0.11558821 -0.165181,0.16369379 -0.03833,0.032319 -0.06817,0.082748 -0.11892,0.097091 -0.01031,0.00291 -0.02186,-0.00345 -0.03202,0 -0.0034,0.00115 -0.0044,0.00625 -0.0075,0.00794 -0.0044,0.00234 -0.01038,-0.00232 -0.01479,0 -0.0094,0.00496 -0.01975,0.012174 -0.02957,0.015578 -0.03613,0.012527 -0.130324,-0.00866 -0.171246,0 -0.09607,0.020325 -0.164716,0.00461 -0.263337,-0.00484 -0.01777,-0.0017 -0.03578,0.00205 -0.05351,0 -0.0143,-0.00165 -0.02791,-0.00734 -0.04187,-0.011014 -0.02994,-0.00451 -0.05974,-0.010348 -0.08984,-0.01354 -0.05463,-0.00579 -0.116876,0.011573 -0.170813,0 -0.0042,-8.974e-4 -0.005,-0.00797 -0.009,-0.00956 -0.02143,-0.00848 -0.05152,0.00765 -0.07327,0 -0.0053,-0.00188 -0.0096,-0.00655 -0.01507,-0.00794 -0.03166,-0.00804 -0.06956,0.00569 -0.101592,0 -0.0071,-0.00126 -0.01235,-0.00817 -0.01929,-0.010163 -7.78e-4,-2.221e-4 -0.03106,2.173e-4 -0.03205,0 -0.0091,-0.002 -0.01734,-0.00738 -0.02646,-0.00931 -0.01909,-0.00403 -0.04048,0.00406 -0.05957,0 -0.0065,-0.00138 -0.01135,-0.00755 -0.01773,-0.00935 -9.05e-4,-2.515e-4 -0.02973,2.46e-4 -0.03084,0 -0.01564,-0.00348 -0.02883,-0.015464 -0.0445,-0.018804 -0.0087,-0.00185 -0.0179,0.0016 -0.02666,0 -0.0065,-0.00118 -0.05161,-0.019237 -0.05793,-0.020355 -0.04988,-0.00883 -0.129647,0.012701 -0.176847,0 -0.08575,-0.023076 -0.190017,-0.00865 -0.279076,-0.00865 -0.02941,0 -0.07479,0.00959 -0.102055,0 -0.0053,-0.00188 -0.0096,-0.00655 -0.0151,-0.00794 -0.03669,-0.00931 -0.129812,0 -0.17477,0 -0.123211,0 -0.246424,0 -0.369636,0"
       id="path3" /><path
       style="fill:none;stroke:#4d4d4d;stroke-width:0.264583;stroke-dasharray:none"
       d="m 12.418801,0.62558187 c -0.105513,0.0890135 -0.193923,0.21631267 -0.326649,0.26902447 -0.05046,0.0200385 -0.103711,0.0321467 -0.155479,0.0485016 -0.09582,0.0302743 0.04867,-0.0136924 -0.114336,0.0457953 -0.03268,0.0119271 -0.09009,0.0178226 -0.120053,0.0238099 -0.07543,0.015075 -0.149812,0.038888 -0.225996,0.050204 -0.04162,0.00618 -0.08451,0.00587 -0.126104,0.010886 -0.01596,0.00193 -0.03085,0.00969 -0.0468,0.011677 -0.01549,0.00193 -0.0314,-0.00234 -0.04683,0 -0.0075,0.00113 -0.01284,0.00894 -0.02031,0.010187 -0.05738,0.00959 -0.133586,0 -0.19349,0 -0.04009,0 -0.11302,0.00881 -0.14961,0 -0.0062,-0.00149 -0.01104,-0.00646 -0.01706,-0.00851 -0.01487,-0.00507 -0.03483,0.00488 -0.04978,0 -0.0279,-0.0091 -0.05764,-0.00712 -0.0853,-0.015904 -0.0036,-0.00113 -0.0046,-0.00625 -0.0079,-0.00794 -0.01151,-0.00581 -0.02751,-0.00396 -0.03938,-0.00794 -0.03402,-0.011397 -0.07043,-0.030787 -0.105911,-0.03792 -0.06348,-0.012762 -0.125809,-0.019827 -0.189902,-0.0358213 -0.02331,-0.005817 -0.05052,0.005019 -0.07404,0 -0.02868,-0.00612 -0.04878,-0.009305 -0.07797,-0.009305"
       id="path4" /><path
       style="fill:none;stroke:#4d4d4d;stroke-width:0.264583;stroke-dasharray:none"
       d="m 15.875646,1.2319843 c -0.03636,0.051776 -0.0715,0.1067615 -0.111757,0.1561175 -0.01105,0.013549 -0.02546,0.02388 -0.03595,0.037911 -0.02621,0.035051 -0.04545,0.075841 -0.07386,0.1089264 -0.01718,0.019996 -0.04185,0.031183 -0.06142,0.04856 -0.04489,0.03985 -0.08803,0.079889 -0.13408,0.1182672 -0.04888,0.04074 0.0086,9.848e-4 -0.03801,0.040072 -0.01118,0.018577 -0.03308,0.018744 -0.04811,0.030487 -0.05705,0.044564 0.01381,-0.00615 -0.02625,0.036876 -0.0048,0.00518 -0.05773,0.047142 -0.06217,0.048682 -0.01321,0.00458 -0.02446,0.00328 -0.03765,0.00791 -0.0034,0.00118 -0.0042,0.00675 -0.0075,0.00794 -0.014,0.00492 -0.03239,-0.00382 -0.04672,0 -0.02181,0.00582 -0.01878,0.010931 -0.02374,0.016127 -10e-4,0.00114 -0.05235,0.013331 -0.05926,0.015761 -0.01602,0.00564 -0.04838,0 -0.06442,0 -0.04014,0 -0.181417,-0.00987 -0.211183,0 -0.0054,0.00178 -0.0096,0.00655 -0.0151,0.00794 -0.03785,0.00961 -0.08535,-0.012489 -0.122326,0 -0.0033,0.00113 -0.0042,0.0067 -0.0075,0.00788 -0.03195,0.01122 -0.157928,-0.0052 -0.197177,0 -0.01166,0.00155 -0.02188,0.00956 -0.03344,0.011745 -0.02618,0.00494 -0.05895,0 -0.08559,0 -0.05431,0 -0.10862,0 -0.16293,0 -0.02677,0 -0.05889,-0.00465 -0.08524,0 -0.01,0.00176 -0.01886,0.00794 -0.02876,0.010102 -0.04574,0.00996 -0.146612,0 -0.199199,0 -0.0209,0 -0.05602,-0.00674 -0.07586,0 -0.0034,0.00115 -0.0042,0.00675 -0.0075,0.00794 -0.02845,0.010006 -0.209633,0 -0.233073,0 -0.124146,0 -0.248293,0 -0.372438,0 -0.04205,0 -0.137944,-0.00961 -0.173094,0 -0.0059,0.0016 -0.01034,0.00698 -0.0162,0.00852 -0.02866,0.00753 -0.06273,-0.00763 -0.09137,0 -0.0059,0.00156 -0.01036,0.007 -0.01623,0.00855 -0.02609,0.00687 -0.05949,-0.00416 -0.08574,0 -0.0108,0.00171 -0.02031,0.00896 -0.03107,0.010923 -0.02292,0.00418 -0.04677,-0.00348 -0.0698,0 -0.01083,0.00164 -0.02044,0.00852 -0.03113,0.010923 -0.02367,0.0053 -0.05385,-0.00796 -0.07679,0 -0.0036,0.00125 -0.0045,0.00714 -0.0081,0.00845 -0.01421,0.0052 -0.03236,7.81e-4 -0.05276,0.00797 -0.0059,0.00208 -0.02554,-0.00441 -0.02971,0 -0.0017,0.00183 0.0017,0.00594 0,0.00778 -0.0018,0.00196 -0.02713,-1.19e-4 -0.02746,0 -0.0074,0.00268 -0.01477,0.012998 -0.02218,0.015578 -0.0089,0.00311 -0.0209,-0.00315 -0.02983,0 -0.03053,0.010791 -0.04286,0.010791 -0.07413,0.016491 -0.02083,0.00379 -0.04076,0.015363 -0.06165,0.018743 -0.01885,0.00305 -0.03861,-0.00444 -0.05721,0 -0.0038,9.107e-4 -0.0045,0.00776 -0.0083,0.00877 -0.03153,0.00831 -0.07648,0 -0.109678,0 -0.01163,0 -0.127238,0.00675 -0.140029,0 -0.01633,-0.00863 -0.06119,-0.031814 -0.06864,-0.047526 -0.0011,-0.00232 0.0017,-0.00595 0,-0.00778 -0.0017,-0.00183 -0.0057,0.00183 -0.0074,0 -5.8e-5,-6.12e-5 5.8e-5,-0.015366 0,-0.015487 -0.0015,-0.00324 -0.0058,-0.00445 -0.0073,-0.00769 -0.0022,-0.00465 0.0015,-0.010655 0,-0.015578 -0.0048,-0.015063 -0.0099,-0.030102 -0.01654,-0.044362 -0.0053,-0.011306 -0.01691,-0.022387 -0.02368,-0.033073 -0.01078,-0.017035 -0.0081,-0.041295 -0.01579,-0.05851 -0.0015,-0.00332 -0.0063,-0.0043 -0.0074,-0.00778 -0.0037,-0.011717 0.0029,-0.027575 0,-0.039524 -0.0047,-0.018788 -0.01256,-0.030632 -0.01631,-0.051025 -0.0016,-0.00866 0.0037,-0.018548 0,-0.026441 -0.0097,-0.020555 -0.01239,-0.04245 -0.02233,-0.063165 -0.0041,-0.00857 0.0015,-0.020209 -0.0074,-0.038946 -0.0049,-0.010461 0.0049,-0.028745 0,-0.03922 -0.0062,-0.013116 -0.0074,-0.015135 -0.0074,-0.031156"
       id="path5" /><path
       style="fill:none;stroke:#4d4d4d;stroke-width:0.302;stroke-dasharray:none"
       d="m 11.627559,1.597874 c 0.01461,0.00963 0.03108,0.016899 0.04382,0.028888 0.0067,0.00635 -0.01658,0.055144 -0.01742,0.056651 -0.02589,0.045975 -0.05543,0.089795 -0.08332,0.1345882 -0.02094,0.03364 -0.03734,0.070649 -0.06316,0.1007132 -0.02525,0.029413 -0.05947,0.049776 -0.08831,0.075687 -0.04364,0.039209 -0.08618,0.079768 -0.136413,0.1112649 -0.01618,0.010142 -0.03505,0.015487 -0.05124,0.025604 -0.0181,0.011306 -0.03352,0.026469 -0.05121,0.038406 -0.07018,0.047368 -0.150047,0.093075 -0.228429,0.1264388 -0.0437,0.0186 -0.0845,0.021779 -0.129845,0.030865 -0.02928,0.00587 -0.0565,0.015188 -0.08663,0.01934 -0.06142,0.00846 -0.126437,-0.0088 -0.187803,0 -0.01828,0.00262 -0.03603,0.00827 -0.05431,0.010886 -0.03148,0.00451 -0.06655,0 -0.09822,0 -0.07045,0 -0.140893,0 -0.21134,0 -0.07655,0 -0.153096,0 -0.229645,0 -0.0515,0 -0.103288,0.0054 -0.154506,0 -0.02108,-0.00222 -0.04126,-0.010452 -0.06237,-0.012498 -0.02208,-0.00214 -0.04445,0.00181 -0.06656,0 -0.07453,-0.00609 -0.133377,-0.015752 -0.2057445,-0.015752 -0.046802,0 -0.1225875,0.00941 -0.1693452,0 -0.050166,-0.010099 -0.098334,-0.017888 -0.151252,-0.022594 -0.01873,-0.00166 -0.037745,0.00229 -0.056408,0 -0.011411,-0.0014 -0.021392,-0.00895 -0.032719,-0.010917 -0.03499,-0.00606 -0.073705,0.00699 -0.1084977,0 -0.00959,-0.00193 -0.01815,-0.00802 -0.027854,-0.00927 -0.00444,-5.768e-4 -0.059979,0.00568 -0.071399,0 -0.017275,-0.00859 -0.024172,-0.00274 -0.039196,-0.00778 -0.021746,-0.0073 -0.04591,-0.021362 -0.068206,-0.025847 -0.00917,-0.00184 -0.018849,0.0016 -0.028067,0 -0.023111,-0.00401 -0.044123,-0.013195 -0.065986,-0.018671 -0.00806,-0.00202 -0.017052,0.00264 -0.024934,0 -0.039468,-0.01319 -0.081866,-0.022447 -0.1222121,-0.037676 -0.020235,-0.00764 -0.03948,-0.018042 -0.060239,-0.024114 -0.0071,-0.00208 -0.015026,0.00182 -0.022199,0 -0.041783,-0.010609 -0.070292,-0.025176 -0.1096531,-0.036551 -0.017497,-0.00506 -0.03692,-0.00351 -0.053519,-0.011008 -0.00626,-0.00283 -0.044202,-0.020848 -0.046708,-0.023354 -0.00514,-0.00514 -0.010996,-0.02496 -0.023355,-0.031138 -0.0081,-0.00405 -0.017735,-0.00459 -0.023355,-0.015569 -0.00114,-0.0022 0.00175,-0.00567 0,-0.00742 -0.0043,-0.00432 -0.034428,-0.019254 -0.038528,-0.023354 -0.00183,-0.00183 0.00146,-0.00564 0,-0.00778 -0.00751,-0.011006 -0.035496,-0.042105 -0.048715,-0.048714 -0.039531,-0.019766 -0.080023,-0.053814 -0.1171337,-0.081647 -0.024664,-0.018499 -0.050123,-0.054161 -0.080127,-0.064314 -0.00501,-0.0017 -0.010853,0.00167 -0.015872,0 -2.204e-4,-7.33e-5 -0.015393,-0.015538 -0.01569,-0.015691 -0.017232,-0.00884 -0.034118,-0.024295 -0.05434,-0.031078 -0.00498,-0.00167 -0.012039,0.00371 -0.015751,0 -0.00312,-0.00312 -0.00421,-0.00989 -0.015568,-0.015569 -0.00464,-0.00232 -0.010927,0.00232 -0.015568,0 -0.029255,-0.014628 -0.06157,-0.027048 -0.089219,-0.0409 -0.00652,-0.00327 -0.00939,-0.011456 -0.015478,-0.015478 -0.016827,-0.01112 -0.032948,-0.00893 -0.048167,-0.024144"
       id="path6" /><path
       style="fill:none;stroke:#4d4d4d;stroke-width:0.202;stroke-dasharray:none"
       d="m 7.5061475,1.6304934 c -0.1696505,0.1419982 0.024995,-0.012789 -0.1108697,0.076386 -0.024522,0.016094 -0.043169,0.040115 -0.067659,0.056256 -0.046418,0.030594 -0.095826,0.056416 -0.1430116,0.085813 -0.031976,0.019921 -0.068795,0.04904 -0.1021725,0.063858 -0.028945,0.01285 -0.061564,0.016374 -0.090131,0.030044 -0.010668,0.0051 -0.01451,0.019797 -0.025088,0.025087 -0.023643,0.011825 -0.050723,0.015181 -0.075231,0.025087 -0.040992,0.016568 -0.081546,0.034345 -0.1211477,0.054005 -0.013356,0.00663 -0.023881,0.018147 -0.03722,0.024814 -0.020688,0.00827 -0.041376,0.016542 -0.062064,0.024813 -0.00741,0 -0.015184,-0.0023 -0.022228,0 -0.014679,0.00478 -0.027108,0.014937 -0.041416,0.020738 -0.00301,0.00122 -0.00649,0 -0.00973,0 -0.00865,0.00288 -0.017799,0.00454 -0.025937,0.00864 -0.00374,0.00188 -0.00494,0.00747 -0.00888,0.00888 -0.00745,0.00267 -0.016661,-0.00352 -0.023749,0 -0.070493,0.035041 -0.2265627,0.023506 -0.3128433,0.023506 -0.092371,0 -0.1847419,0 -0.277113,0 -0.034089,0 -0.07578,0.0067 -0.1088932,0 -0.00683,-0.00138 -0.011819,-0.00825 -0.018701,-0.00934 -0.044973,-0.00707 -0.098904,0 -0.1446533,0 -0.071511,0 -0.1430216,0 -0.2145324,0 -0.033189,0 -0.071502,0.00489 -0.1041191,0 -0.01828,-0.00274 -0.036073,-0.00827 -0.05437,-0.010886 -0.063495,-0.00908 -0.1362712,0 -0.200666,0 -0.046972,0 -0.1090573,-0.00967 -0.1547493,0 -0.00682,0.00144 -0.011864,0.008 -0.018701,0.00937 -0.04938,0.0099 -0.1722573,0 -0.2298885,0 -0.015256,0 -0.030934,-0.00357 -0.045765,0 -0.00618,0.00149 -0.010893,0.00698 -0.01706,0.00851 -0.017576,0.00439 -0.1941496,0.00319 -0.203646,0 -0.049034,-0.016472 -0.097738,-0.045508 -0.1505527,-0.052698 -0.010787,-0.00147 -0.021947,0.00195 -0.032659,0 -0.027252,-0.00496 -0.055552,-0.022196 -0.082772,-0.027368 -0.00914,-0.00174 -0.018746,0.00159 -0.027915,0 -0.03194,-0.00554 -0.063727,-0.020928 -0.094358,-0.02831 -0.010919,-0.00263 -0.023006,0.00345 -0.033693,0 -0.00356,-0.00115 -0.0046,-0.00625 -0.00794,-0.00794 -0.01202,-0.00607 -0.033532,-0.011167 -0.047194,-0.015721 -0.00656,-0.00219 -0.017206,0.00307 -0.023355,0 -0.013933,-0.00697 -0.030051,-0.019444 -0.046829,-0.023597 -0.00552,-0.00137 -0.011639,0.00172 -0.01706,0 -0.045997,-0.014623 0.050314,-0.00239 -0.024175,-0.016056 -0.00917,-0.00168 -0.018904,0.00216 -0.027976,0 -0.00401,-9.525e-4 -0.00511,-0.0068 -0.00876,-0.00873 -0.00153,-8.122e-4 -0.013851,7.991e-4 -0.015446,0 -0.014433,-0.00723 -0.031541,-0.019999 -0.048836,-0.024388 -0.00551,-0.0014 -0.011639,0.00171 -0.01706,0 -0.013692,-0.00433 -0.032752,-0.016477 -0.045643,-0.022898 -0.00462,-0.0023 -0.011822,0.00364 -0.015478,0 -0.00342,-0.0034 -0.00377,-0.011523 -0.0073,-0.014718 -0.00502,-0.00455 -0.026427,-0.010858 -0.031138,-0.015569 -0.00183,-0.00183 0.00183,-0.00594 0,-0.00778 -0.00365,-0.0037 -0.011713,-0.00351 -0.015356,-0.00721 -0.00183,-0.00185 0.00183,-0.00595 0,-0.00778 -0.00108,-0.00107 -0.044697,-0.028823 -0.047376,-0.031473 -0.00188,-0.00186 0.00148,-0.00575 0,-0.00794 -0.00559,-0.00559 -0.011171,-0.01117 -0.016756,-0.016755 -0.0028,0 -0.00639,0.00195 -0.00839,0 -0.00424,-0.00412 -0.00465,-0.010957 -0.00794,-0.015873 -0.014079,-0.021037 -0.035612,-0.036617 -0.04984,-0.057959 -0.022937,-0.034404 -0.057241,-0.064461 -0.07593,-0.1014125 -0.019804,-0.039153 -0.037837,-0.083429 -0.05659,-0.1209349 -0.00765,-0.015292 0,-0.093562 0,-0.1150963"
       id="path7" /><path
       style="fill:none;stroke:#4d4d4d;stroke-width:0.202;stroke-dasharray:none"
       d="M 3.346379,1.5323346 C 3.254101,1.6366654 3.1263086,1.6777507 3.0021238,1.7309937 c -0.220086,0.09436 -0.023797,0.014215 -0.2939899,0.1096836 -0.1595925,0.056389 -0.168715,0.069387 -0.3368051,0.118867 -0.071542,0.02106 -0.1455817,0.032961 -0.2170563,0.054249 -0.098499,0.029337 -0.082079,0.033501 -0.1951013,0.059631 -0.031969,0.00533 -0.063939,0.010663 -0.095908,0.015995 -0.00778,0 -0.01563,-9.657e-4 -0.023354,0 -0.026684,0.00334 -0.1152925,0.019598 -0.1410044,0.025878 -0.0121,0.00296 -0.023097,0.010247 -0.035456,0.011799 -0.01936,0.00243 -0.039134,-0.00207 -0.058536,0 -0.043682,0.00465 -0.085646,0.016218 -0.1285977,0.023384 -0.039187,0.00654 -0.086211,0 -0.1257394,0 -0.06924,0 -0.1384805,0 -0.2077208,0 -0.032471,0 -0.069505,0.00416 -0.101443,0 -0.015946,-0.00208 -0.030843,-0.00971 -0.046799,-0.011707 -0.015509,-0.00194 -0.031361,0.00178 -0.04689,0 -0.021105,-0.00241 -0.041377,-0.010152 -0.06249,-0.012498 -0.085112,-0.00946 -0.1777903,0 -0.2637942,0 -0.17830558,0 -0.35661122,0 -0.53491684,0"
       id="path8" /><path
       style="fill:none;stroke:#4d4d4d;stroke-width:0.302;stroke-dasharray:none"
       d="m 3.0996439,2.558532 c 0.00496,0.015377 0.015817,0.030002 0.01487,0.04613 -2.91e-4,0.00475 -0.057829,0.08939 -0.063128,0.094692 -0.016113,0.016123 -0.037396,0.026458 -0.053519,0.042572 -0.028444,0.028427 -0.055047,0.049461 -0.085205,0.074866 -0.030237,0.025472 -0.050601,0.058938 -0.08709,0.076782 -0.019899,0.00973 -0.041467,0.015669 -0.061699,0.024691 -0.017851,0.00796 -0.033917,0.020016 -0.052455,0.026212 -0.053268,0.017807 -0.111968,0.020151 -0.1667605,0.026366 -0.025149,0.00285 -0.049707,0.010017 -0.074896,0.012467 -0.09483,0.00923 -0.1923455,-0.0092 -0.2871784,0 -0.018242,0.00177 -0.03517,0.010927 -0.053337,0.013348 -0.015473,0.00206 -0.03134,-0.00193 -0.046829,0 -0.059206,0.0074 -0.1141364,0.030862 -0.1744842,0.036916 -0.01765,0.00177 -0.035477,0 -0.053215,0 -0.02082,0.00417 -0.041357,0.010152 -0.062459,0.012499 -0.038102,0.00424 -0.078308,-0.00543 -0.1162519,0 -0.1829824,0.036552 0.073955,-0.011361 -0.096942,0.010036 -0.015956,0.00201 -0.030843,0.00971 -0.046799,0.011708 -0.015479,0.00193 -0.03132,-0.00193 -0.046799,0 -0.045438,0.00568 -0.051799,0.026133 -0.095087,0.031017 -0.035052,0.00396 -0.2074379,0.00648 -0.2328079,0 -0.024241,-0.0062 -0.046765,-0.018412 -0.071217,-0.023717 -0.012402,-0.00269 -0.025446,0.00127 -0.038071,0 -0.031162,-0.00316 -0.061822,-0.010515 -0.09302,-0.01329 -0.06937,-0.00617 -0.1412105,0 -0.2109137,0 -0.057263,0 -0.13437,-0.00995 -0.1913914,0 -0.006864,0.00119 -0.0118187,0.00825 -0.0187013,0.00933 -0.008915,0.0014 -0.0898874,0.00861 -0.103754,0 C 0.40533543,3.055531 0.39367333,3.062627 0.36722343,3.055951 0.32157883,3.044426 0.27551983,3.035774 0.22950307,3.026272 c -0.0362088,-0.00748 -0.0789705,0.00931 -0.11473145,0 -0.006163,-0.00161 -0.0107892,-0.00761 -0.0170897,-0.00855 -0.0197784,-0.00596 -0.0406355,0.00292 -0.0606347,0 -0.0446616,-0.00653 -0.082876,-0.010856 -0.12756387,-0.010856"
       id="path9" /><path
       style="fill:none;stroke:#4d4d4d;stroke-width:0.302;stroke-dasharray:none"
       d="m 3.7657737,2.7907319 c 0.063706,0.057841 0.1291794,0.1139301 0.1999364,0.1648446 0.00733,0.00527 0.017277,0.00634 0.024236,0.012102 0.016732,0.013846 0.029388,0.032163 0.046069,0.046069 0.015648,0.013044 0.036668,0.018439 0.052546,0.031199 0.0326,0.026199 0.00813,0.018529 0.04987,0.040109 0.012158,0.00629 0.030213,0.010604 0.043241,0.017545 0.01215,0.00647 0.1101908,0.00116 0.1190191,0 0.012266,-0.00161 0.023125,-0.0091 0.035213,-0.011737 0.034445,-0.00752 0.080559,-0.00416 0.1100182,-0.010096 0.0096,-0.00193 0.018148,-0.00804 0.027854,-0.00931 0.014433,-0.00188 0.02929,0.00228 0.043667,0 0.00747,-0.00119 0.013192,-0.00757 0.020312,-0.010126 0.00743,-0.00266 0.015965,0.00164 0.023688,0 0.040061,-0.00854 0.016505,-0.01079 0.058597,-0.019553 0.014983,-0.00312 0.030704,0.00169 0.045917,0 0.031274,-0.00346 0.062104,-0.010565 0.093446,-0.013348 0.030985,-0.00275 0.075926,0.00759 0.1074637,0 0.020809,-0.00501 0.040388,-0.012309 0.062003,-0.01782 0.024368,-0.00622 0.055658,0.00795 0.079458,0 0.00353,-0.00119 0.00458,-0.00623 0.00791,-0.00791 0.00621,-0.00313 0.017132,0.00311 0.023355,0 0.00328,-0.00164 0.0043,-0.00664 0.00778,-0.00778 0.016928,-0.00558 0.042841,0.00301 0.060026,0 0.010472,-0.00183 0.01977,-0.00835 0.030257,-0.010096 0.019807,-0.0033 0.040436,0.00332 0.060239,0 0.021138,-0.00354 0.040014,-0.015965 0.061,-0.020312 0.017523,-0.00363 0.035437,-0.00423 0.052728,-0.00855 0.00617,-0.00153 0.010771,-0.00759 0.01706,-0.00851 0.013385,-0.00198 0.027248,0.00222 0.040595,0 0.00747,-0.00124 0.013007,-0.00817 0.020312,-0.010157 0.00802,-0.00217 0.017492,0.0037 0.024934,0 0.025456,-0.012655 0.04697,-0.015568 0.078241,-0.015568"
       id="path11" /><path
       style="fill:none;stroke:#4d4d4d;stroke-width:0.202;stroke-dasharray:none"
       d="m 7.7234469,2.6894712 c -0.05261,0.068882 -0.1279424,0.1202212 -0.2012741,0.1657875 -0.016208,0.010073 -0.035635,0.014573 -0.051208,0.025604 -0.014073,0.00997 -0.022331,0.02687 -0.036581,0.036582 -0.033562,0.022873 -0.071552,0.038605 -0.1057913,0.060452 -0.022101,0.014102 -0.040813,0.033095 -0.062915,0.047194 -0.046183,0.029459 -0.1483394,0.080525 -0.1997233,0.099862 -0.030724,0.011562 -0.064824,0.012298 -0.095544,0.023871 -0.016875,0.00636 -0.031249,0.018574 -0.04838,0.024204 -0.02399,0.00788 -0.05147,0.00285 -0.074653,0.012861 -0.00337,0.00146 -0.00421,0.00697 -0.00778,0.00778 -0.042105,0.00964 -0.1604438,0 -0.2118868,0 -0.066037,0 -0.1320744,0 -0.1981118,0 -0.024992,0 -0.067592,0.00646 -0.093172,0 -0.00615,-0.00156 -0.010872,-0.00698 -0.017029,-0.00851 -0.038257,-0.00955 -0.1527136,0 -0.2032508,0 -0.085377,0 -0.1707542,0 -0.2561313,0 -0.022146,0 -0.087992,0.00741 -0.1029634,0 -0.011964,-0.00592 -0.00631,-0.00763 -0.01946,-0.00763"
       id="path12" /><path
       style="fill:none;stroke:#4d4d4d;stroke-width:0.202;stroke-dasharray:none"
       d="m 8.3064094,2.8802849 c 0.1516002,0.1343845 0.302332,0.2466771 0.4668322,0.3571181 0.025125,0.016867 0.00687,0.023209 0.046707,0.031138 0.050147,0.00998 0.3664961,0.0085 0.4145902,0 0.050104,-0.00886 0.096565,-0.033476 0.1466908,-0.042207 0.019913,-0.00347 0.040781,0.00378 0.060635,0 0.013671,-0.00259 0.023693,-0.015944 0.037342,-0.018672 0.078923,-0.015764 0.1613676,0.00807 0.2414436,0 0.02805,-0.00283 0.05274,-0.020495 0.08022,-0.026759 0.02993,-0.00682 0.06199,0.00608 0.09208,0 0.06061,-0.012258 0.1234288,-0.047986 0.1856138,-0.061243 0.140015,-0.02985 0.288083,-0.030108 0.429186,-0.061182 0.02512,-0.00553 0.04409,-0.028199 0.06903,-0.034483 0.01103,-0.00278 0.02328,0.00344 0.03412,0 0.0154,-0.00489 0.03161,-0.026368 0.04701,-0.031442 0.01143,-0.00377 0.0697,-0.00693 0.07864,-0.015872 0.0037,-0.00367 -0.0047,-0.013269 0,-0.015568 0.0094,-0.00465 0.02211,0.0047 0.0315,0 0.0047,-0.00235 -0.0037,-0.012017 0,-0.015751 0.0043,-0.00434 0.09671,-0.011353 0.110019,-0.015811 0.0071,-0.00238 0.0088,-0.013504 0.01587,-0.015872 0.01002,-0.00334 0.02167,0.00334 0.03169,0 0.0071,-0.00238 0.0092,-0.012502 0.01587,-0.015872 0.03718,-0.01877 0.0807,-0.036297 0.125162,-0.047012 0.04131,-0.00996 0.09357,0.013142 0.133858,0 0.06104,-0.019907 -0.0157,-0.016603 0.03071,-0.016603"
       id="path13" /><path
       style="fill:none;stroke:#4d4d4d;stroke-width:0.3;stroke-dasharray:none"
       d="m 15.744801,2.3264803 c -0.04361,0.00288 -0.06705,0.03696 -0.102863,0.055954 -0.0095,0.00503 -0.02194,0.00365 -0.03024,0.010649 -0.0094,0.00795 -0.01165,0.022708 -0.02013,0.031796 -0.01225,0.013141 -0.06239,0.04215 -0.07797,0.051481 -0.06121,0.036668 -0.134036,0.060473 -0.199632,0.086533 -0.02087,0.00829 -0.04357,0.01174 -0.0635,0.022303 -0.03241,0.017175 -0.06042,0.052057 -0.09666,0.061705 -0.02152,0.00573 -0.04364,0.011573 -0.06517,0.017252 -0.01301,0.00343 -0.07625,0.034004 -0.08857,0.042688 -0.0066,0.00463 -0.0152,0.01335 -0.0225,0.015913 -0.0047,0.00164 -0.01002,-0.00133 -0.01479,0 -0.01708,0.00478 -0.02347,0.019532 -0.04,0.025345 -0.01988,0.00698 -0.03966,0.016612 -0.05807,0.026318 -0.02082,0.010976 -0.03742,0.00655 -0.05813,0.017555 -0.0035,0.00188 -0.0046,0.00785 -0.0085,0.00889 -0.0081,0.00214 -0.01679,-0.00177 -0.02492,0 -0.0065,0.00143 -0.01184,0.00622 -0.01776,0.00934 -0.009,0.00316 -0.0177,0.00751 -0.027,0.0095 -0.0058,0.00122 -0.01193,-0.00143 -0.01764,0 -0.0059,0.00148 -0.0108,0.00568 -0.0162,0.00852 -0.009,0.00316 -0.0177,0.00751 -0.027,0.0095 -0.0058,0.00122 -0.01201,-0.00177 -0.01765,0 -0.0034,0.00108 -0.0041,0.00709 -0.0075,0.00794 -0.0107,0.00262 -0.02253,-0.00358 -0.03298,0 -0.01684,0.00576 -0.03067,0.01042 -0.0475,0.016462 -0.01868,0.0067 -0.04257,-0.00471 -0.06195,0 -0.0059,0.00143 -0.01034,0.007 -0.0162,0.00856 -0.01749,0.00462 -0.03632,-0.00316 -0.05409,0 -0.0071,0.00127 -0.01229,0.00863 -0.01935,0.010192 -0.01101,0.00677 -0.02327,-0.00206 -0.03465,0 -0.101134,0.018238 -0.206119,0.010224 -0.308906,0.010224 -0.05381,0 -0.116682,0.019365 -0.17038,0.00938 -0.06288,-0.011702 -0.01617,-0.010071 -0.05741,-0.010071 -0.08801,0 0.0063,0.00647 -0.0344,-0.00877 -0.034,-0.012752 -0.0847,0.00689 -0.119641,0 -0.0063,-0.00124 -0.01091,-0.00728 -0.01706,-0.00898 -4.27e-4,-1.181e-4 -0.02773,0.00228 -0.02989,0 -0.0016,-0.00172 0.0017,-0.00564 0,-0.0073 -0.0036,-0.00355 -0.0113,0.00367 -0.01479,0 -0.0039,-0.0041 -0.0036,-0.011262 -0.0074,-0.015577 -0.0044,-0.00494 -0.02227,-0.011731 -0.02847,-0.015 -0.01385,-0.00729 -0.02248,-0.023205 -0.03641,-0.030548 -0.0064,-0.00335 -0.02544,-0.00336 -0.02992,-0.00797 -0.0017,-0.00177 0.0017,-0.00583 0,-0.00766 -0.0035,-0.00379 -0.0327,0.00103 -0.03645,0 -0.0059,-0.00161 -0.01034,-0.007 -0.0162,-0.00855 -0.01993,-0.00526 -0.07252,0.0082 -0.07252,-0.020325"
       id="path14" /><path
       style="fill:none;stroke:#4d4d4d;stroke-width:0.3;stroke-dasharray:none"
       d="m 11.735948,2.8027435 c 0.01662,0.011776 0.03426,0.02209 0.04987,0.035325 0.05408,0.045877 0.09632,0.099208 0.148491,0.145651 0.02561,0.022799 0.05497,0.038594 0.08163,0.059575 0.01404,0.01105 0.0229,0.023898 0.03731,0.031491 0.03092,0.01629 -0.0078,-5.295e-4 0.0074,0.015455 0.0034,0.00364 0.01029,-0.0023 0.01467,0 0.03472,0.018288 0.120897,0.038745 0.160329,0.025225 0.01757,-0.00602 0.03363,-0.025386 0.04912,-0.034564 0.0602,-0.035654 0.123482,-0.068964 0.192731,-0.078135 0.01101,-0.00146 0.02231,0.00177 0.03327,0 0.01,-0.00161 0.01872,-0.00918 0.02879,-0.010102 0.02694,-0.00249 0.05422,0.00284 0.08112,0 0.01217,-0.0013 0.02264,-0.011026 0.03482,-0.012231 0.02951,-0.00292 0.05944,0.0031 0.08895,0 0.0133,-0.0014 0.0251,-0.00989 0.03806,-0.013356 0.0185,-0.00494 0.03857,-0.00397 0.05613,-0.011836 0.0095,-0.00426 0.01378,-0.016427 0.02195,-0.023125 0.01021,-0.00837 0.03035,-0.019938 0.04178,-0.026074 0.01431,-0.00768 0.05328,-0.021086 0.06945,-0.024401 0.0058,-0.00119 0.01201,0.00177 0.01764,0 0.01811,-0.00571 0.03461,-0.036206 0.04502,-0.047161 0.008,-0.00841 0.02339,-0.00901 0.02969,-0.015638 0.0027,-0.00278 0.007,-0.022828 0.0074,-0.023186 0.003,-0.00321 0.01735,-0.0053 0.02175,-0.00763 0.03618,-0.019212 0.03626,-0.023368 0.0806,-0.023368"
       id="path15" /></g></svg>
