<?xml version="1.0" encoding="UTF-8" standalone="no"?>
<!-- Created with Inkscape (http://www.inkscape.org/) -->

<svg
   width="48"
   height="48"
   viewBox="0 0 12.7 12.7"
   version="1.1"
   id="svg1"
   xml:space="preserve"
   inkscape:version="1.3 (0e150ed6c4, 2023-07-21)"
   sodipodi:docname="drawing.svg"
   inkscape:export-filename="openstreetmap-explorer/symbols/forest_explorer.svg"
   inkscape:export-xdpi="96"
   inkscape:export-ydpi="96"
   xmlns:inkscape="http://www.inkscape.org/namespaces/inkscape"
   xmlns:sodipodi="http://sodipodi.sourceforge.net/DTD/sodipodi-0.dtd"
   xmlns="http://www.w3.org/2000/svg"
   xmlns:svg="http://www.w3.org/2000/svg"><sodipodi:namedview
     id="namedview1"
     pagecolor="#ffffff"
     bordercolor="#000000"
     borderopacity="0.25"
     inkscape:showpageshadow="2"
     inkscape:pageopacity="0.0"
     inkscape:pagecheckerboard="0"
     inkscape:deskcolor="#d1d1d1"
     inkscape:document-units="mm"
     inkscape:zoom="8.3553821"
     inkscape:cx="-19.269017"
     inkscape:cy="-2.4535084"
     inkscape:window-width="1920"
     inkscape:window-height="1131"
     inkscape:window-x="0"
     inkscape:window-y="0"
     inkscape:window-maximized="1"
     inkscape:current-layer="layer1"
     showgrid="false" /><defs
     id="defs1" /><g
     inkscape:label="Layer 1"
     inkscape:groupmode="layer"
     id="layer1"><path
       style="fill:#009c47;fill-opacity:1;stroke-width:0.130852"
       d="m 9.2390555,5.8783146 c -0.032375,-0.013062 -0.0577,-0.1026364 -0.0577,-0.2040844 0,-0.1674164 -0.053373,-0.2350036 -0.1114197,-0.141086 -0.039767,0.064346 -0.4314241,0.100705 -0.5596585,0.051956 C 8.3353852,5.5186086 8.2381529,5.2568333 8.307583,5.0393974 8.337289,4.9463654 8.379855,4.8505149 8.402181,4.8263949 8.424504,4.8022759 8.442768,4.7414289 8.442768,4.6911874 c 0,-0.2108689 0.1033107,-0.3752584 0.2936146,-0.4672051 0.105097,-0.050777 0.211583,-0.1390433 0.2366356,-0.1961465 0.098628,-0.224803 0.5360523,-0.1721406 0.7203837,0.086724 0.051808,0.072751 0.1410475,0.1440391 0.1983162,0.1584125 0.1276479,0.032035 0.2584709,0.2426928 0.2606759,0.4197473 9.03e-4,0.072254 0.03133,0.1832958 0.0676,0.2467681 0.0778,0.1361051 0.08915,0.4305002 0.02146,0.5569773 -0.02792,0.052167 -0.09635,0.089292 -0.164602,0.089292 -0.06425,0 -0.1518017,0.018641 -0.1945627,0.041416 C 9.7675031,5.688325 9.4851704,5.542428 9.4666583,5.4124004 9.4485873,5.2854557 9.4592983,5.2849927 9.6705097,5.4036504 9.7633647,5.4557994 9.8938271,5.4921514 9.9604256,5.4844364 10.064719,5.4723412 10.083545,5.4456545 10.096155,5.292023 10.106911,5.1609487 10.085362,5.0865872 10.014908,5.0115859 9.9411726,4.933091 9.9258829,4.8752103 9.9487299,4.7609626 9.9722126,4.6435695 9.9560902,4.588613 9.8719016,4.4989973 c -0.058602,-0.062376 -0.1449791,-0.113406 -0.19196,-0.113406 -0.046985,0 -0.1037833,-0.048301 -0.1262294,-0.1073378 -0.022443,-0.059034 -0.096607,-0.1438965 -0.1648029,-0.1885806 -0.1204122,-0.0789 -0.1271767,-0.078256 -0.2342257,0.022314 -0.060627,0.056954 -0.1223761,0.1418188 -0.137217,0.1885805 -0.016238,0.051164 -0.070671,0.085021 -0.136662,0.085021 -0.1342722,0 -0.2533969,0.1588121 -0.2533969,0.3378181 0,0.072944 -0.044702,0.1954009 -0.099329,0.2721226 C 8.3933508,5.1847375 8.4513607,5.3573173 8.6745592,5.431282 8.8137968,5.477429 8.8477989,5.472826 8.9304342,5.39666 8.9881702,5.343452 9.0927959,5.308821 9.1958653,5.308821 h 0.1701321 v 0.300052 c 0,0.2943454 -0.010442,0.3164937 -0.1269457,0.2694807 z"
       id="path1" /><path
       style="fill:#009c47;fill-opacity:1;stroke-width:0.130852"
       d="M 1.8222113,3.2143945 C 1.8100695,3.1805462 1.7944755,3.0106434 1.7875622,2.836832 L 1.7749968,2.5208106 1.6523104,2.6175633 c -0.067475,0.053216 -0.1649225,0.096752 -0.2165448,0.096752 -0.051624,0 -0.106696,0.020777 -0.122388,0.046165 -0.051892,0.083954 -0.1220824,0.047924 -0.1070742,-0.054975 0.00995,-0.068203 0.060406,-0.1128996 0.1549707,-0.1372648 0.077123,-0.019874 0.2004307,-0.098975 0.2740217,-0.1757884 0.1098479,-0.1146569 0.137391,-0.1892553 0.1538411,-0.4166782 0.011216,-0.1549799 0.0011,-0.2770182 -0.023032,-0.2770182 -0.023694,0 -0.102779,0.062321 -0.1757509,0.1384856 -0.1224209,0.1277785 -0.3000525,0.1879811 -0.3000525,0.1016921 0,-0.020234 0.084884,-0.1189074 0.1886357,-0.2192696 C 1.5826867,1.6193025 1.7177261,1.4391762 1.7790259,1.3193823 1.845139,1.1901841 1.913938,1.1109548 1.9481444,1.1246294 c 0.031713,0.012676 0.1266558,0.1347758 0.2109765,0.2713264 0.084322,0.1365506 0.1933785,0.2845343 0.2423495,0.3288529 0.08793,0.079572 0.1236041,0.2509179 0.052251,0.2509179 -0.020234,0 -0.1179297,-0.083088 -0.2170971,-0.1846471 -0.099167,-0.1015561 -0.1968604,-0.184648 -0.2170977,-0.184648 -0.071415,0 -0.035643,0.3752207 0.052185,0.5473899 0.048937,0.09593 0.1735767,0.2508442 0.276972,0.3442554 0.1033942,0.093411 0.1879907,0.1894395 0.1879907,0.2133957 0,0.1130519 -0.1123353,0.087839 -0.2788446,-0.062597 -0.100672,-0.09095 -0.202913,-0.1653666 -0.2272025,-0.1653666 -0.024293,0 -0.050197,0.1697039 -0.057571,0.3771197 -0.00893,0.2505258 -0.032772,0.3835304 -0.071084,0.3962156 -0.031722,0.010503 -0.067614,-0.00856 -0.079755,-0.042447 z"
       id="path3" /><path
       style="fill:#009c47;fill-opacity:1;stroke-width:0.130852"
       d="m 6.6788987,10.972007 c -0.01608,-0.02602 -0.02559,-0.114308 -0.02113,-0.196188 0.01432,-0.262827 0.004,-0.298109 -0.06188,-0.211529 -0.068332,0.08981 -0.4527782,0.135423 -0.4794868,0.0569 -0.00971,-0.02856 0.061106,-0.08364 0.1573678,-0.122401 0.2573791,-0.103642 0.371898,-0.250649 0.407992,-0.52373 0.03765,-0.28485 -0.0306,-0.358742 -0.1689262,-0.182892 -0.051605,0.0656 -0.1234724,0.119275 -0.1597133,0.119275 -0.1231889,0 -0.066472,-0.165342 0.1187552,-0.346214 0.1015563,-0.09917 0.1846473,-0.204704 0.1846473,-0.234526 0,-0.02983 0.03421,-0.08261 0.07601,-0.117303 0.06637,-0.05509 0.08832,-0.04593 0.173107,0.07212 0.05341,0.07436 0.164612,0.211782 0.247127,0.305373 0.08252,0.09359 0.150026,0.183226 0.150026,0.199191 0,0.06531 -0.162488,0.02257 -0.259038,-0.06813 -0.220737,-0.207373 -0.272531,0.05741 -0.08237,0.421083 0.06611,0.126447 0.180367,0.280519 0.25389,0.342385 0.13579,0.11426 0.179198,0.25693 0.07817,0.25693 -0.03052,0 -0.122211,-0.06466 -0.20374,-0.143676 -0.08153,-0.07902 -0.170802,-0.129728 -0.198385,-0.11268 -0.02758,0.01705 -0.05015,0.144019 -0.05015,0.28216 0,0.187913 -0.01675,0.251167 -0.06652,0.251167 -0.03658,0 -0.07968,-0.02129 -0.09576,-0.04732 z"
       id="path2" /></g></svg>
