<?xml version="1.0" encoding="UTF-8" standalone="no"?>
<!-- Created with Inkscape (http://www.inkscape.org/) -->

<svg
   width="48"
   height="48"
   viewBox="0 0 12.7 12.7"
   version="1.1"
   id="svg1"
   xml:space="preserve"
   sodipodi:docname="scrub_explorer.svg"
   inkscape:export-filename="../../../openstreetmap-explorer/symbols/scrub_explorer.svg"
   inkscape:export-xdpi="96"
   inkscape:export-ydpi="96"
   inkscape:version="1.3 (0e150ed6c4, 2023-07-21)"
   xmlns:inkscape="http://www.inkscape.org/namespaces/inkscape"
   xmlns:sodipodi="http://sodipodi.sourceforge.net/DTD/sodipodi-0.dtd"
   xmlns="http://www.w3.org/2000/svg"
   xmlns:svg="http://www.w3.org/2000/svg"><sodipodi:namedview
     id="namedview1"
     pagecolor="#ffffff"
     bordercolor="#000000"
     borderopacity="0.25"
     inkscape:showpageshadow="2"
     inkscape:pageopacity="0.0"
     inkscape:pagecheckerboard="0"
     inkscape:deskcolor="#d1d1d1"
     inkscape:document-units="mm"
     inkscape:zoom="10.24"
     inkscape:cx="34.765625"
     inkscape:cy="28.710938"
     inkscape:window-width="1499"
     inkscape:window-height="1216"
     inkscape:window-x="26"
     inkscape:window-y="23"
     inkscape:window-maximized="0"
     inkscape:current-layer="layer1" /><defs
     id="defs1" /><g
     inkscape:label="Layer 1"
     inkscape:groupmode="layer"
     id="layer1"><path
       style="fill:#02a063;fill-opacity:1"
       d="m 5.1974761,8.951323 -0.066313,-0.1072961 0.050811,-0.050812 0.050812,-0.050811 0.051153,0.051153 c 0.028134,0.028134 0.03511,0.099283 0.015501,0.1581076 L 5.2637888,9.0586192 Z M 6.8414531,8.7232961 V 8.4219659 l 0.07055,0.043602 0.07055,0.043602 -0.037826,0.2577277 c -0.020805,0.1417503 -0.052552,0.2577278 -0.07055,0.2577278 -0.017998,0 -0.032724,-0.1355986 -0.032724,-0.3013293 z m 0.3985446,0.2450512 -0.052675,-0.08523 0.070631,-0.2467457 0.070631,-0.2467456 0.055825,0.1325273 0.055824,0.1325274 -0.073781,0.1994481 -0.073781,0.199448 z m 0.7880852,0.010922 c 7.131e-4,-0.044904 0.036741,-0.1376894 0.080063,-0.2061908 l 0.078767,-0.1245481 0.063064,0.063064 0.063064,0.063064 -0.143127,0.143127 -0.1431269,0.143127 z m 0.423735,-0.083689 c 0.058904,-0.070975 0.1245346,-0.1116101 0.1458451,-0.0903 0.021311,0.021311 0.013633,0.079381 -0.017062,0.129046 -0.030695,0.049665 -0.096325,0.0903 -0.1458452,0.0903 h -0.090037 z m -2.8310084,-0.028924 -0.066313,-0.1072962 0.050812,-0.050811 0.050812,-0.050812 0.051153,0.051153 c 0.028134,0.028134 0.03511,0.099282 0.015501,0.1581076 L 5.6871221,8.9739525 Z M 5.9101198,8.7232961 V 8.5066326 l 0.084667,0.052327 c 0.046567,0.02878 0.084667,0.1262783 0.084667,0.2166634 v 0.1643366 h -0.084667 -0.084667 z m 0.4816789,0.016173 c -0.036623,-0.1335533 -0.045682,-0.2637283 -0.020133,-0.289278 0.02555,-0.02555 0.068371,-0.024537 0.095158,0.00225 0.026787,0.026787 0.035847,0.1569622 0.020133,0.2892778 l -0.028571,0.2405738 z m 1.3002019,0.023906 c 0.051978,-0.097122 0.1151752,-0.1559148 0.1404385,-0.1306515 0.025263,0.025263 0.023372,0.1047264 -0.0042,0.1765847 -0.027575,0.071858 -0.090772,0.1306515 -0.1404385,0.1306515 H 7.5974953 Z M 5.7526881,4.4949592 c 0,-0.093133 0.032744,-0.2455333 0.072765,-0.3386667 l 0.072765,-0.1693333 v 0.1693333 c 0,0.093133 -0.032744,0.2455334 -0.072765,0.3386667 l -0.072765,0.1693334 z m 0.7500983,0.059267 c 0,-0.037253 0.04572,-0.1134533 0.1016,-0.1693333 0.05588,-0.05588 0.1324029,-0.1016 0.1700508,-0.1016 h 0.068451 l -0.1057506,0.169333 c -0.058163,0.093133 -0.1346856,0.1693333 -0.1700508,0.1693333 -0.035365,0 -0.0643,-0.03048 -0.0643,-0.067733 z m 0.4233334,-0.00694 c 0,-0.046567 0.0381,-0.1082138 0.084667,-0.1369935 l 0.084667,-0.052327 v 0.084667 c 0,0.046567 -0.0381,0.1082137 -0.084667,0.1369935 l -0.084667,0.052327 z M 3.7087864,4.4476291 v -0.089663 l 0.084667,0.052327 c 0.046567,0.02878 0.084667,0.069128 0.084667,0.089663 0,0.020535 -0.0381,0.037337 -0.084667,0.037337 -0.046567,0 -0.084667,-0.040349 -0.084667,-0.089663 z m 0.3937561,-0.034625 -0.047694,-0.1242885 0.080969,-0.050042 c 0.044533,-0.027523 0.080969,-0.031859 0.080969,-0.00964 0,0.022223 0.023126,0.1006715 0.051392,0.1743301 l 0.051392,0.1339247 h -0.084667 c -0.046567,0 -0.106129,-0.05593 -0.1323607,-0.1242886 z M 4.441686,4.3504901 C 4.414818,4.2477486 4.410375,4.1461486 4.431816,4.1247123 c 0.021436,-0.021436 0.053292,-0.0231 0.070791,-0.0037 0.017498,0.019403 0.058166,0.1210028 0.090372,0.2257778 l 0.058557,0.1905 H 4.571039 c -0.044274,0 -0.1024799,-0.084061 -0.1293474,-0.1868026 z m 0.4583846,-0.1306975 0.00595,-0.3175001 0.072765,0.1693334 c 0.040021,0.093133 0.075443,0.2360083 0.078716,0.3175 l 0.00595,0.1481667 h -0.084667 -0.084667 z m 0.4173825,0.0635 V 4.0292925 h 0.084667 0.084667 v 0.2540001 0.254 h -0.084667 -0.084667 z m 0.8799416,0.1200753 c 0.028265,-0.073659 0.051392,-0.1711571 0.051392,-0.2166635 v -0.082739 l 0.076718,0.047414 0.076718,0.047414 -0.04426,0.169249 c -0.024343,0.093087 -0.081992,0.1692491 -0.1281098,0.1692491 h -0.08385 z"
       id="path9374" /></g></svg>
