<?xml version="1.0" encoding="UTF-8" standalone="no"?>
<!-- Created with Inkscape (http://www.inkscape.org/) -->

<svg
   width="48"
   height="48"
   viewBox="0 0 12.699999 12.7"
   version="1.1"
   id="svg1"
   xml:space="preserve"
   inkscape:version="1.3 (0e150ed6c4, 2023-07-21)"
   sodipodi:docname="wetland_marsh.svg"
   inkscape:export-filename="../../../openstreetmap-explorer/symbols/wetland_explorer.svg"
   inkscape:export-xdpi="96"
   inkscape:export-ydpi="96"
   xmlns:inkscape="http://www.inkscape.org/namespaces/inkscape"
   xmlns:sodipodi="http://sodipodi.sourceforge.net/DTD/sodipodi-0.dtd"
   xmlns="http://www.w3.org/2000/svg"
   xmlns:svg="http://www.w3.org/2000/svg"><sodipodi:namedview
     id="namedview1"
     pagecolor="#ffffff"
     bordercolor="#000000"
     borderopacity="0.25"
     inkscape:showpageshadow="2"
     inkscape:pageopacity="0.0"
     inkscape:pagecheckerboard="0"
     inkscape:deskcolor="#d1d1d1"
     inkscape:document-units="mm"
     inkscape:zoom="9.3003651"
     inkscape:cx="-1.9891692"
     inkscape:cy="11.236118"
     inkscape:window-width="1920"
     inkscape:window-height="1131"
     inkscape:window-x="0"
     inkscape:window-y="0"
     inkscape:window-maximized="1"
     inkscape:current-layer="layer1" /><defs
     id="defs1" /><g
     inkscape:label="Layer 1"
     inkscape:groupmode="layer"
     id="layer1"><path
       style="fill:none;stroke:#00abee;stroke-width:0.2;stroke-dasharray:none;stroke-opacity:1"
       d="M 1.4164613,2.6924174 3.0446984,2.6796801 V 2.2993834"
       id="path17" /><path
       style="fill:none;stroke:#00abee;stroke-width:0.2;stroke-dasharray:none;stroke-opacity:1"
       d="m 3.8637904,2.204167 v 0.8682281 h 0.551937"
       id="path18" /><path
       style="fill:none;stroke:#00abee;stroke-width:0.2;stroke-dasharray:none;stroke-opacity:1"
       d="M 3.805,3.1162199 H 3.1871281"
       id="path19" /><path
       style="fill:none;stroke:#00abee;stroke-width:0.2;stroke-dasharray:none;stroke-opacity:1"
       d="M 3.7169932,2.5739664 V 2.2846846"
       id="path20" /><path
       style="fill:none;stroke:#00abee;stroke-width:0.2;stroke-dasharray:none;stroke-opacity:1"
       d="M 4.6825335,2.4897061 V 2.8065568 H 6.1362969"
       id="path21" /><path
       style="fill:none;stroke:#00abee;stroke-width:0.2;stroke-dasharray:none;stroke-opacity:1"
       d="M 5.2924724,2.816188 V 2.5864429"
       id="path22" /><path
       style="fill:none;stroke:#00abee;stroke-width:0.2;stroke-dasharray:none;stroke-opacity:1"
       d="M 2.6540751,9.4163367 4.2823122,9.4035994 V 9.0233027"
       id="path17-1-6" /><path
       style="fill:none;stroke:#00abee;stroke-width:0.2;stroke-dasharray:none;stroke-opacity:1"
       d="m 5.1014042,8.9280863 v 0.8682281 h 0.551937"
       id="path18-9-6" /><path
       style="fill:none;stroke:#00abee;stroke-width:0.2;stroke-dasharray:none;stroke-opacity:1"
       d="M 5.0426138,9.8401392 H 4.4247419"
       id="path19-6-4" /><path
       style="fill:none;stroke:#00abee;stroke-width:0.2;stroke-dasharray:none;stroke-opacity:1"
       d="M 4.954607,9.2978857 V 9.0086039"
       id="path20-9-0" /><path
       style="fill:none;stroke:#00abee;stroke-width:0.2;stroke-dasharray:none;stroke-opacity:1"
       d="M 5.9201473,9.2136254 V 9.5304761 H 7.3739106"
       id="path21-3-0" /><path
       style="fill:none;stroke:#00abee;stroke-width:0.2;stroke-dasharray:none;stroke-opacity:1"
       d="M 6.5300856,9.5401073 V 9.3103622"
       id="path22-3-4" /><path
       style="fill:#02a063;fill-opacity:1"
       d="m 9.4189472,6.2582389 c 0.051978,-0.097122 0.1151752,-0.1559148 0.1404385,-0.1306515 0.025263,0.025263 0.023372,0.1047264 -0.0042,0.1765847 -0.027575,0.071858 -0.090772,0.1306515 -0.1404385,0.1306515 h -0.090305 z"
       id="path30" /><path
       style="fill:#02a063;fill-opacity:1"
       d="m 8.1187453,6.2343329 c -0.036623,-0.1335533 -0.045682,-0.2637283 -0.020133,-0.289278 0.02555,-0.02555 0.068371,-0.024537 0.095158,0.00225 0.026787,0.026787 0.035847,0.1569622 0.020133,0.2892778 l -0.028571,0.2405738 z"
       id="path29" /><path
       style="fill:#02a063;fill-opacity:1"
       d="M 7.6370664,6.2181599 V 6.0014964 l 0.084667,0.052327 c 0.046567,0.02878 0.084667,0.1262783 0.084667,0.2166634 v 0.1643366 h -0.084667 -0.084667 z"
       id="path28" /><path
       style="fill:#02a063;fill-opacity:1"
       d="m 7.3477561,6.3615201 -0.066313,-0.1072962 0.050812,-0.050811 0.050812,-0.050812 0.051153,0.051153 c 0.028134,0.028134 0.03511,0.099282 0.015501,0.1581076 l -0.035652,0.1069548 z"
       id="path27" /><path
       style="fill:#02a063;fill-opacity:1"
       d="m 10.178764,6.3904441 c 0.0589,-0.070975 0.124535,-0.1116101 0.145846,-0.0903 0.02131,0.021311 0.01363,0.079381 -0.01706,0.129046 -0.0307,0.049665 -0.09633,0.0903 -0.145846,0.0903 h -0.09004 z"
       id="path26" /><path
       style="fill:#02a063;fill-opacity:1"
       d="m 9.7550295,6.4741331 c 7.131e-4,-0.044904 0.036741,-0.1376894 0.080063,-0.2061908 l 0.078767,-0.1245481 0.063064,0.063064 0.063064,0.063064 -0.1431255,0.143127 -0.1431269,0.143127 z"
       id="path25" /><path
       style="fill:#02a063;fill-opacity:1"
       d="m 8.9669443,6.4632111 -0.052675,-0.08523 0.070631,-0.2467457 0.070631,-0.2467456 0.055825,0.1325273 0.055824,0.1325274 -0.073781,0.1994481 -0.073781,0.199448 z"
       id="path24" /><path
       style="fill:#02a063;fill-opacity:1"
       d="M 8.5683997,6.2181599 V 5.9168297 l 0.07055,0.043602 0.07055,0.043602 -0.037826,0.2577277 c -0.020805,0.1417503 -0.052552,0.2577278 -0.07055,0.2577278 -0.017998,0 -0.032724,-0.1355986 -0.032724,-0.3013293 z"
       id="path23" /><path
       style="fill:#02a063;fill-opacity:1"
       d="m 6.9244227,6.4461868 -0.066313,-0.1072961 0.050811,-0.050812 0.050812,-0.050811 0.051153,0.051153 c 0.028134,0.028134 0.03511,0.099283 0.015501,0.1581076 L 6.9907357,6.553483 Z"
       id="path9374" /></g></svg>
