<?xml version="1.0" encoding="UTF-8" standalone="no"?>
<!-- Created with Inkscape (http://www.inkscape.org/) -->

<svg
   width="8"
   height="8"
   viewBox="0 0 2.1166665 2.1166667"
   version="1.1"
   id="svg1"
   xml:space="preserve"
   xmlns="http://www.w3.org/2000/svg"
   xmlns:svg="http://www.w3.org/2000/svg"><defs
     id="defs1" /><g
     id="layer1"><path
       style="fill:#00b2ec;fill-opacity:1"
       d="m 0.23413843,1.934154 c 0.004819,-0.057728 0.0131307,-0.068595 0.0634395,-0.082934 l 0.0578944,-0.016502 0.004638,-0.85058943 0.004638,-0.85058941 h 0.0893324 0.0893324 l 0.005218,0.13846527 0.005218,0.13846527 H 0.66922975 0.78461037 V 0.26753731 0.12460541 h 0.0982657 0.0982657 v 0.26799731 0.2679973 H 1.0883417 1.1955406 V 0.53553461 0.4104692 h 0.089332 0.089332 v 0.1429319 0.14293189 h 0.116133 0.1161321 V 0.5534011 0.4104692 h 0.106994 0.1069939 l 0.00467,0.7086028 0.00467,0.7086028 0.062533,0.020942 c 0.054462,0.018239 0.063248,0.029398 0.068078,0.086456 l 0.00555,0.065514 H 1.0972749 0.22859329 Z M 0.89181031,1.4659627 c 0,-0.2592539 -0.001251,-0.2681135 -0.0452509,-0.3204041 C 0.75729065,1.0394687 0.6210418,1.032781 0.53001396,1.1300211 l -0.0491328,0.052486 v 0.2750411 0.275041 h 0.20546459 0.20546459 z"
       id="path1" /></g></svg>
