<?xml version="1.0" encoding="UTF-8" standalone="no"?>
<!-- Created with Inkscape (http://www.inkscape.org/) -->

<svg
   width="18"
   height="6"
   viewBox="0 0 4.7624995 1.5875"
   version="1.1"
   id="svg1"
   xml:space="preserve"
   inkscape:version="1.3 (0e150ed6c4, 2023-07-21)"
   sodipodi:docname="spring.svg"
   inkscape:export-filename="../../../openstreetmap-explorer/symbols/leisure/golf.svg"
   inkscape:export-xdpi="96"
   inkscape:export-ydpi="96"
   xmlns:inkscape="http://www.inkscape.org/namespaces/inkscape"
   xmlns:sodipodi="http://sodipodi.sourceforge.net/DTD/sodipodi-0.dtd"
   xmlns="http://www.w3.org/2000/svg"
   xmlns:svg="http://www.w3.org/2000/svg"><sodipodi:namedview
     id="namedview1"
     pagecolor="#ffffff"
     bordercolor="#000000"
     borderopacity="0.25"
     inkscape:showpageshadow="2"
     inkscape:pageopacity="0.0"
     inkscape:pagecheckerboard="0"
     inkscape:deskcolor="#d1d1d1"
     inkscape:document-units="mm"
     inkscape:zoom="45.33028"
     inkscape:cx="11.228697"
     inkscape:cy="4.7981173"
     inkscape:window-width="1920"
     inkscape:window-height="1131"
     inkscape:window-x="0"
     inkscape:window-y="0"
     inkscape:window-maximized="1"
     inkscape:current-layer="layer1" /><defs
     id="defs1" /><g
     inkscape:label="Layer 1"
     inkscape:groupmode="layer"
     id="layer1"><circle
       style="fill:none;fill-opacity:1;stroke:#00abee;stroke-width:0.1;stroke-dasharray:none"
       id="path1"
       cx="2.3812499"
       cy="0.79374999"
       r="0.36763796" /><path
       d="m 3.4418228,0.30690104 c -0.0381,-0.0225778 -0.1100666,-0.0634999 -0.217311,-0.0634999 -0.1608665,0 -0.2850442,0.10442215 -0.2850442,0.25541092 0,0.10724436 0.059267,0.18767764 0.2215443,0.26387758 0.1975554,0.0931333 0.2158998,0.15098877 0.2158998,0.21166651 0,0.0578554 -0.043744,0.16086645 -0.179211,0.16086645 -0.1072443,0 -0.1989665,-0.070556 -0.2497665,-0.1213555 v 0.1298222 c 0.074789,0.052211 0.1622777,0.087489 0.2525887,0.087489 0.1255888,0 0.2808109,-0.081844 0.2808109,-0.2638775 0,-0.14252212 -0.067733,-0.19755541 -0.2554109,-0.29068867 -0.084667,-0.0423333 -0.1820332,-0.0917222 -0.1820332,-0.18908875 0,-0.0352777 0.026811,-0.14816655 0.179211,-0.14816655 0.097367,0 0.1749776,0.0550333 0.2187221,0.0874888 z M 3.621034,0.58488972 V 1.5303334 H 3.718401 V 1.1930781 c 0.026811,0.011289 0.083255,0.0381 0.1608665,0.0381 0.2031999,0 0.3146775,-0.1523999 0.3146775,-0.33019973 0,-0.20319984 -0.128411,-0.31608865 -0.3499552,-0.31608865 z m 0.097367,0.0860777 h 0.1241776 c 0.1495777,0 0.2511776,0.0804333 0.2511776,0.23283315 0,0.12699993 -0.073378,0.24129983 -0.2300109,0.24129983 -0.071967,0 -0.1227666,-0.028222 -0.1453443,-0.040922 z M 4.344934,0.58488972 V 1.2184781 H 4.442301 V 0.94472278 c 0,-0.0324555 0,-0.10159992 0.022578,-0.15239988 0.029633,-0.0691444 0.098778,-0.11994435 0.1552221,-0.11994435 0.055033,0 0.1015999,0.0409222 0.1227666,0.0592666 l 0.052211,-0.0846666 c -0.023989,-0.0197555 -0.090312,-0.0747888 -0.1509893,-0.0747888 -0.042333,0 -0.083255,0.0268111 -0.095956,0.0352777 -0.052211,0.0352778 -0.0889,0.090311 -0.1058333,0.11712214 v -0.1396999 z"
       id="text1"
       style="font-size:1.41111px;font-family:'Gill Sans';-inkscape-font-specification:'Gill Sans';fill:#00b2ec;stroke:#00abee;stroke-width:0"
       aria-label="Spr" /></g></svg>
